<mxfile host="65bd71144e">
    <diagram id="HIP3nbAZw_EuaXWnEj3U" name="Page-1">
        <mxGraphModel dx="606" dy="512" grid="1" gridSize="10" guides="1" tooltips="1" connect="1" arrows="1" fold="1" page="1" pageScale="1" pageWidth="850" pageHeight="1100" math="0" shadow="0">
            <root>
                <mxCell id="0"/>
                <mxCell id="1" parent="0"/>
                <mxCell id="22" style="edgeStyle=none;html=1;" parent="1" source="2" target="8" edge="1">
                    <mxGeometry relative="1" as="geometry"/>
                </mxCell>
                <mxCell id="2" value="Start" style="strokeWidth=2;html=1;shape=mxgraph.flowchart.terminator;whiteSpace=wrap;" parent="1" vertex="1">
                    <mxGeometry x="210" y="130" width="100" height="60" as="geometry"/>
                </mxCell>
                <mxCell id="3" value="Stop" style="strokeWidth=2;html=1;shape=mxgraph.flowchart.terminator;whiteSpace=wrap;" parent="1" vertex="1">
                    <mxGeometry x="210" y="1330" width="100" height="60" as="geometry"/>
                </mxCell>
                <mxCell id="23" style="edgeStyle=none;html=1;" parent="1" source="8" target="18" edge="1">
                    <mxGeometry relative="1" as="geometry"/>
                </mxCell>
                <mxCell id="8" value="Collect inputs" style="shape=parallelogram;html=1;strokeWidth=2;perimeter=parallelogramPerimeter;whiteSpace=wrap;rounded=1;arcSize=12;size=0.23;" parent="1" vertex="1">
                    <mxGeometry x="185" y="230" width="150" height="60" as="geometry"/>
                </mxCell>
                <mxCell id="26" style="edgeStyle=none;html=1;" parent="1" source="18" edge="1">
                    <mxGeometry relative="1" as="geometry">
                        <mxPoint x="363.8000000000002" y="380" as="targetPoint"/>
                    </mxGeometry>
                </mxCell>
                <mxCell id="27" style="edgeStyle=none;html=1;" parent="1" source="18" edge="1">
                    <mxGeometry relative="1" as="geometry">
                        <mxPoint x="260" y="470" as="targetPoint"/>
                    </mxGeometry>
                </mxCell>
                <mxCell id="18" value="If&lt;br&gt;bun is seeded" style="strokeWidth=2;html=1;shape=mxgraph.flowchart.decision;whiteSpace=wrap;" parent="1" vertex="1">
                    <mxGeometry x="210" y="330" width="100" height="100" as="geometry"/>
                </mxCell>
                <mxCell id="28" value="True" style="text;html=1;strokeColor=none;fillColor=none;align=center;verticalAlign=middle;whiteSpace=wrap;rounded=0;" parent="1" vertex="1">
                    <mxGeometry x="290" y="350" width="60" height="30" as="geometry"/>
                </mxCell>
                <mxCell id="29" value="False" style="text;html=1;strokeColor=none;fillColor=none;align=center;verticalAlign=middle;whiteSpace=wrap;rounded=0;" parent="1" vertex="1">
                    <mxGeometry x="210" y="420" width="60" height="30" as="geometry"/>
                </mxCell>
                <mxCell id="136" style="edgeStyle=none;html=1;" parent="1" source="138" edge="1">
                    <mxGeometry relative="1" as="geometry">
                        <mxPoint x="363.8000000000002" y="520" as="targetPoint"/>
                    </mxGeometry>
                </mxCell>
                <mxCell id="137" style="edgeStyle=none;html=1;" parent="1" source="138" edge="1">
                    <mxGeometry relative="1" as="geometry">
                        <mxPoint x="260" y="610" as="targetPoint"/>
                    </mxGeometry>
                </mxCell>
                <mxCell id="138" value="If&lt;br&gt;two pattys&amp;nbsp;" style="strokeWidth=2;html=1;shape=mxgraph.flowchart.decision;whiteSpace=wrap;" parent="1" vertex="1">
                    <mxGeometry x="210" y="470" width="100" height="100" as="geometry"/>
                </mxCell>
                <mxCell id="139" value="True" style="text;html=1;strokeColor=none;fillColor=none;align=center;verticalAlign=middle;whiteSpace=wrap;rounded=0;" parent="1" vertex="1">
                    <mxGeometry x="290" y="490" width="60" height="30" as="geometry"/>
                </mxCell>
                <mxCell id="140" value="False" style="text;html=1;strokeColor=none;fillColor=none;align=center;verticalAlign=middle;whiteSpace=wrap;rounded=0;" parent="1" vertex="1">
                    <mxGeometry x="210" y="560" width="60" height="30" as="geometry"/>
                </mxCell>
                <mxCell id="141" style="edgeStyle=none;html=1;" parent="1" source="143" edge="1">
                    <mxGeometry relative="1" as="geometry">
                        <mxPoint x="363.8000000000002" y="660" as="targetPoint"/>
                    </mxGeometry>
                </mxCell>
                <mxCell id="142" style="edgeStyle=none;html=1;" parent="1" source="143" edge="1">
                    <mxGeometry relative="1" as="geometry">
                        <mxPoint x="260" y="750" as="targetPoint"/>
                    </mxGeometry>
                </mxCell>
                <mxCell id="143" value="If&lt;br&gt;there is&lt;br&gt;tomato" style="strokeWidth=2;html=1;shape=mxgraph.flowchart.decision;whiteSpace=wrap;" parent="1" vertex="1">
                    <mxGeometry x="210" y="610" width="100" height="100" as="geometry"/>
                </mxCell>
                <mxCell id="144" value="True" style="text;html=1;strokeColor=none;fillColor=none;align=center;verticalAlign=middle;whiteSpace=wrap;rounded=0;" parent="1" vertex="1">
                    <mxGeometry x="290" y="630" width="60" height="30" as="geometry"/>
                </mxCell>
                <mxCell id="145" value="False" style="text;html=1;strokeColor=none;fillColor=none;align=center;verticalAlign=middle;whiteSpace=wrap;rounded=0;" parent="1" vertex="1">
                    <mxGeometry x="210" y="700" width="60" height="30" as="geometry"/>
                </mxCell>
                <mxCell id="146" style="edgeStyle=none;html=1;" parent="1" source="148" edge="1">
                    <mxGeometry relative="1" as="geometry">
                        <mxPoint x="363.8000000000002" y="800" as="targetPoint"/>
                    </mxGeometry>
                </mxCell>
                <mxCell id="147" style="edgeStyle=none;html=1;" parent="1" source="148" edge="1">
                    <mxGeometry relative="1" as="geometry">
                        <mxPoint x="260" y="890" as="targetPoint"/>
                    </mxGeometry>
                </mxCell>
                <mxCell id="148" value="If&lt;br&gt;there is&lt;br&gt;lettuce" style="strokeWidth=2;html=1;shape=mxgraph.flowchart.decision;whiteSpace=wrap;" parent="1" vertex="1">
                    <mxGeometry x="210" y="750" width="100" height="100" as="geometry"/>
                </mxCell>
                <mxCell id="149" value="True" style="text;html=1;strokeColor=none;fillColor=none;align=center;verticalAlign=middle;whiteSpace=wrap;rounded=0;" parent="1" vertex="1">
                    <mxGeometry x="290" y="770" width="60" height="30" as="geometry"/>
                </mxCell>
                <mxCell id="150" value="False" style="text;html=1;strokeColor=none;fillColor=none;align=center;verticalAlign=middle;whiteSpace=wrap;rounded=0;" parent="1" vertex="1">
                    <mxGeometry x="210" y="840" width="60" height="30" as="geometry"/>
                </mxCell>
                <mxCell id="151" style="edgeStyle=none;html=1;" parent="1" source="153" edge="1">
                    <mxGeometry relative="1" as="geometry">
                        <mxPoint x="363.8000000000002" y="940" as="targetPoint"/>
                    </mxGeometry>
                </mxCell>
                <mxCell id="152" style="edgeStyle=none;html=1;" parent="1" source="153" edge="1">
                    <mxGeometry relative="1" as="geometry">
                        <mxPoint x="260" y="1030" as="targetPoint"/>
                    </mxGeometry>
                </mxCell>
                <mxCell id="153" value="If&lt;br&gt;there is&lt;br&gt;bacon" style="strokeWidth=2;html=1;shape=mxgraph.flowchart.decision;whiteSpace=wrap;" parent="1" vertex="1">
                    <mxGeometry x="210" y="890" width="100" height="100" as="geometry"/>
                </mxCell>
                <mxCell id="154" value="True" style="text;html=1;strokeColor=none;fillColor=none;align=center;verticalAlign=middle;whiteSpace=wrap;rounded=0;" parent="1" vertex="1">
                    <mxGeometry x="290" y="910" width="60" height="30" as="geometry"/>
                </mxCell>
                <mxCell id="155" value="False" style="text;html=1;strokeColor=none;fillColor=none;align=center;verticalAlign=middle;whiteSpace=wrap;rounded=0;" parent="1" vertex="1">
                    <mxGeometry x="210" y="980" width="60" height="30" as="geometry"/>
                </mxCell>
                <mxCell id="156" style="edgeStyle=none;html=1;" parent="1" source="158" edge="1">
                    <mxGeometry relative="1" as="geometry">
                        <mxPoint x="363.8000000000002" y="1080" as="targetPoint"/>
                    </mxGeometry>
                </mxCell>
                <mxCell id="157" style="edgeStyle=none;html=1;entryX=0.5;entryY=0;entryDx=0;entryDy=0;" parent="1" source="158" edge="1" target="166">
                    <mxGeometry relative="1" as="geometry">
                        <mxPoint x="260" y="1170" as="targetPoint"/>
                    </mxGeometry>
                </mxCell>
                <mxCell id="158" value="If&lt;br&gt;there is&lt;br&gt;ketchup" style="strokeWidth=2;html=1;shape=mxgraph.flowchart.decision;whiteSpace=wrap;" parent="1" vertex="1">
                    <mxGeometry x="210" y="1030" width="100" height="100" as="geometry"/>
                </mxCell>
                <mxCell id="159" value="True" style="text;html=1;strokeColor=none;fillColor=none;align=center;verticalAlign=middle;whiteSpace=wrap;rounded=0;" parent="1" vertex="1">
                    <mxGeometry x="290" y="1050" width="60" height="30" as="geometry"/>
                </mxCell>
                <mxCell id="160" value="False" style="text;html=1;strokeColor=none;fillColor=none;align=center;verticalAlign=middle;whiteSpace=wrap;rounded=0;" parent="1" vertex="1">
                    <mxGeometry x="210" y="1120" width="60" height="30" as="geometry"/>
                </mxCell>
                <mxCell id="167" style="edgeStyle=elbowEdgeStyle;html=1;" parent="1" source="166" target="3" edge="1">
                    <mxGeometry relative="1" as="geometry"/>
                </mxCell>
                <mxCell id="166" value="Output price" style="shape=parallelogram;html=1;strokeWidth=2;perimeter=parallelogramPerimeter;whiteSpace=wrap;rounded=1;arcSize=12;size=0.23;" parent="1" vertex="1">
                    <mxGeometry x="210" y="1230" width="100" height="60" as="geometry"/>
                </mxCell>
                <mxCell id="171" style="edgeStyle=none;html=1;entryX=0.75;entryY=1;entryDx=0;entryDy=0;" parent="1" source="168" target="29" edge="1">
                    <mxGeometry relative="1" as="geometry"/>
                </mxCell>
                <mxCell id="168" value="Add $0.50 to &lt;br&gt;price" style="rounded=1;whiteSpace=wrap;html=1;absoluteArcSize=1;arcSize=14;strokeWidth=2;" parent="1" vertex="1">
                    <mxGeometry x="360" y="330" width="100" height="100" as="geometry"/>
                </mxCell>
                <mxCell id="173" style="edgeStyle=none;html=1;entryX=0.75;entryY=1;entryDx=0;entryDy=0;" parent="1" source="169" target="140" edge="1">
                    <mxGeometry relative="1" as="geometry"/>
                </mxCell>
                <mxCell id="169" value="&lt;div&gt;Add $0.50 to&lt;/div&gt;&lt;div&gt;price&lt;/div&gt;" style="rounded=1;whiteSpace=wrap;html=1;absoluteArcSize=1;arcSize=14;strokeWidth=2;" parent="1" vertex="1">
                    <mxGeometry x="360" y="470" width="100" height="100" as="geometry"/>
                </mxCell>
                <mxCell id="179" style="edgeStyle=none;html=1;entryX=0.867;entryY=1.067;entryDx=0;entryDy=0;entryPerimeter=0;" parent="1" source="174" target="145" edge="1">
                    <mxGeometry relative="1" as="geometry"/>
                </mxCell>
                <mxCell id="174" value="&lt;div&gt;Add $0.25 to&lt;/div&gt;&lt;div&gt;price&lt;/div&gt;" style="rounded=1;whiteSpace=wrap;html=1;absoluteArcSize=1;arcSize=14;strokeWidth=2;" parent="1" vertex="1">
                    <mxGeometry x="360" y="610" width="100" height="100" as="geometry"/>
                </mxCell>
                <mxCell id="180" style="edgeStyle=none;html=1;" parent="1" source="175" edge="1">
                    <mxGeometry relative="1" as="geometry">
                        <mxPoint x="260" y="880" as="targetPoint"/>
                    </mxGeometry>
                </mxCell>
                <mxCell id="175" value="&lt;div&gt;Add $0.25 to&lt;/div&gt;&lt;div&gt;price&lt;/div&gt;" style="rounded=1;whiteSpace=wrap;html=1;absoluteArcSize=1;arcSize=14;strokeWidth=2;" parent="1" vertex="1">
                    <mxGeometry x="360" y="750" width="100" height="100" as="geometry"/>
                </mxCell>
                <mxCell id="181" style="edgeStyle=none;html=1;" parent="1" source="176" edge="1">
                    <mxGeometry relative="1" as="geometry">
                        <mxPoint x="260" y="1020" as="targetPoint"/>
                    </mxGeometry>
                </mxCell>
                <mxCell id="176" value="&lt;div&gt;Add $0.25 to&lt;/div&gt;&lt;div&gt;price&lt;/div&gt;" style="rounded=1;whiteSpace=wrap;html=1;absoluteArcSize=1;arcSize=14;strokeWidth=2;" parent="1" vertex="1">
                    <mxGeometry x="360" y="890" width="100" height="100" as="geometry"/>
                </mxCell>
                <mxCell id="182" style="edgeStyle=none;html=1;" parent="1" source="177" edge="1">
                    <mxGeometry relative="1" as="geometry">
                        <mxPoint x="260" y="1200" as="targetPoint"/>
                    </mxGeometry>
                </mxCell>
                <mxCell id="177" value="&lt;div&gt;Add $0.25 to&lt;/div&gt;&lt;div&gt;price&lt;/div&gt;" style="rounded=1;whiteSpace=wrap;html=1;absoluteArcSize=1;arcSize=14;strokeWidth=2;" parent="1" vertex="1">
                    <mxGeometry x="360" y="1030" width="100" height="100" as="geometry"/>
                </mxCell>
            </root>
        </mxGraphModel>
    </diagram>
</mxfile>